<mxfile host="app.diagrams.net" agent="Mozilla/5.0 (Windows NT 10.0; Win64; x64) AppleWebKit/537.36 (KHTML, like Gecko) Chrome/137.0.0.0 Safari/537.36" version="27.1.5">
  <diagram name="Page-1" id="kmK9JVqfWanQsKKjRIqe">
    <mxGraphModel dx="774" dy="776" grid="1" gridSize="10" guides="1" tooltips="1" connect="1" arrows="1" fold="1" page="1" pageScale="1" pageWidth="850" pageHeight="1100" math="0" shadow="0">
      <root>
        <mxCell id="0" />
        <mxCell id="1" parent="0" />
        <mxCell id="11kE0rX5oYtPxI_MTV5b-1" value="I started out by 1st picking a secret message&amp;nbsp;" style="rounded=0;whiteSpace=wrap;html=1;" vertex="1" parent="1">
          <mxGeometry x="30" y="30" width="170" height="90" as="geometry" />
        </mxCell>
        <mxCell id="11kE0rX5oYtPxI_MTV5b-4" value="" style="shape=singleArrow;whiteSpace=wrap;html=1;" vertex="1" parent="1">
          <mxGeometry x="200" y="40" width="100" height="60" as="geometry" />
        </mxCell>
        <mxCell id="11kE0rX5oYtPxI_MTV5b-5" value="I then got its decimal values I then converted it to binary using 1,2,4,8,16,32,64" style="rounded=1;whiteSpace=wrap;html=1;" vertex="1" parent="1">
          <mxGeometry x="50" y="120" width="120" height="80" as="geometry" />
        </mxCell>
        <mxCell id="11kE0rX5oYtPxI_MTV5b-6" value="I then chose a secret key and converted it using the steps in the last bubble" style="rounded=0;whiteSpace=wrap;html=1;" vertex="1" parent="1">
          <mxGeometry x="300" y="30" width="160" height="90" as="geometry" />
        </mxCell>
        <mxCell id="11kE0rX5oYtPxI_MTV5b-7" value="" style="shape=singleArrow;whiteSpace=wrap;html=1;" vertex="1" parent="1">
          <mxGeometry x="460" y="45" width="100" height="60" as="geometry" />
        </mxCell>
        <mxCell id="11kE0rX5oYtPxI_MTV5b-8" value="Next I did my XOR equation I will break each segment into bubbles under this one." style="rounded=0;whiteSpace=wrap;html=1;" vertex="1" parent="1">
          <mxGeometry x="560" y="40" width="200" height="75" as="geometry" />
        </mxCell>
        <mxCell id="11kE0rX5oYtPxI_MTV5b-9" value="Secret messages valuses are&amp;nbsp;&lt;div&gt;0010001&lt;/div&gt;&lt;div&gt;1010101&lt;/div&gt;&lt;div&gt;1100001&lt;/div&gt;&lt;div&gt;1101001&lt;/div&gt;" style="rounded=1;whiteSpace=wrap;html=1;" vertex="1" parent="1">
          <mxGeometry x="300" y="120" width="160" height="100" as="geometry" />
        </mxCell>
        <mxCell id="11kE0rX5oYtPxI_MTV5b-10" value="The keys values are&amp;nbsp;&lt;div&gt;0100001&lt;/div&gt;&lt;div&gt;1000001&lt;/div&gt;&lt;div&gt;0011001&lt;/div&gt;" style="rounded=1;whiteSpace=wrap;html=1;" vertex="1" parent="1">
          <mxGeometry x="300" y="220" width="160" height="90" as="geometry" />
        </mxCell>
        <mxCell id="11kE0rX5oYtPxI_MTV5b-11" value="0010001 Des val 68&lt;div&gt;0100001 Des val 66&lt;/div&gt;&lt;div&gt;=&amp;nbsp; &amp;nbsp; &amp;nbsp; &amp;nbsp; &amp;nbsp; &amp;nbsp; &amp;nbsp; &amp;nbsp; &amp;nbsp; &amp;nbsp; &amp;nbsp; &amp;nbsp; &amp;nbsp; &amp;nbsp; &amp;nbsp; &amp;nbsp; &amp;nbsp; &amp;nbsp;&lt;/div&gt;&lt;div&gt;0110000 Des val 06&lt;/div&gt;" style="rounded=1;whiteSpace=wrap;html=1;" vertex="1" parent="1">
          <mxGeometry x="570" y="115" width="180" height="95" as="geometry" />
        </mxCell>
        <mxCell id="11kE0rX5oYtPxI_MTV5b-13" value="1010101 Des val 85&lt;div&gt;1000001 Des val 65&lt;/div&gt;&lt;div&gt;=&amp;nbsp; &amp;nbsp; &amp;nbsp; &amp;nbsp; &amp;nbsp; &amp;nbsp; &amp;nbsp; &amp;nbsp; &amp;nbsp; &amp;nbsp; &amp;nbsp; &amp;nbsp; &amp;nbsp; &amp;nbsp; &amp;nbsp; &amp;nbsp; &amp;nbsp; &amp;nbsp;&lt;/div&gt;&lt;div&gt;0010100 Des val 20&amp;nbsp;&lt;/div&gt;" style="rounded=1;whiteSpace=wrap;html=1;" vertex="1" parent="1">
          <mxGeometry x="570" y="210" width="180" height="95" as="geometry" />
        </mxCell>
        <mxCell id="11kE0rX5oYtPxI_MTV5b-14" value="1100001 Des val 67&lt;div&gt;0011001 Des val 76&lt;/div&gt;&lt;div&gt;=&amp;nbsp; &amp;nbsp; &amp;nbsp; &amp;nbsp; &amp;nbsp; &amp;nbsp; &amp;nbsp; &amp;nbsp; &amp;nbsp; &amp;nbsp; &amp;nbsp; &amp;nbsp; &amp;nbsp; &amp;nbsp; &amp;nbsp; &amp;nbsp; &amp;nbsp; &amp;nbsp;&lt;/div&gt;&lt;div&gt;1111000 Des val 15&amp;nbsp;&lt;/div&gt;" style="rounded=1;whiteSpace=wrap;html=1;" vertex="1" parent="1">
          <mxGeometry x="570" y="305" width="180" height="95" as="geometry" />
        </mxCell>
        <mxCell id="11kE0rX5oYtPxI_MTV5b-15" value="1101001 Des val 67&lt;div&gt;0011001 Des val 76&lt;/div&gt;&lt;div&gt;=&amp;nbsp; &amp;nbsp; &amp;nbsp; &amp;nbsp; &amp;nbsp; &amp;nbsp; &amp;nbsp; &amp;nbsp; &amp;nbsp; &amp;nbsp; &amp;nbsp; &amp;nbsp; &amp;nbsp; &amp;nbsp; &amp;nbsp; &amp;nbsp; &amp;nbsp; &amp;nbsp;&lt;/div&gt;&lt;div&gt;1110000 Des val 07&lt;/div&gt;" style="rounded=1;whiteSpace=wrap;html=1;" vertex="1" parent="1">
          <mxGeometry x="570" y="400" width="180" height="95" as="geometry" />
        </mxCell>
        <mxCell id="11kE0rX5oYtPxI_MTV5b-17" value="" style="shape=singleArrow;direction=south;whiteSpace=wrap;html=1;" vertex="1" parent="1">
          <mxGeometry x="630" y="495" width="60" height="80" as="geometry" />
        </mxCell>
        <mxCell id="11kE0rX5oYtPxI_MTV5b-18" value="It in hex would be&amp;nbsp;&lt;div&gt;06,88,0F,07&lt;/div&gt;" style="rounded=0;whiteSpace=wrap;html=1;" vertex="1" parent="1">
          <mxGeometry x="600" y="575" width="120" height="60" as="geometry" />
        </mxCell>
        <mxCell id="11kE0rX5oYtPxI_MTV5b-19" value="Decrypting the message we now run the&lt;span style=&quot;background-color: transparent; color: light-dark(rgb(0, 0, 0), rgb(255, 255, 255));&quot;&gt;&amp;nbsp;the encrypted binary and the key through XOR to convert it back&lt;/span&gt;" style="rounded=0;whiteSpace=wrap;html=1;" vertex="1" parent="1">
          <mxGeometry x="10" y="400" width="200" height="100" as="geometry" />
        </mxCell>
        <mxCell id="11kE0rX5oYtPxI_MTV5b-21" value="0110000 Des val 06&lt;br&gt;&lt;div&gt;0100001 Des val 66&lt;/div&gt;&lt;div&gt;=&amp;nbsp; &amp;nbsp; &amp;nbsp; &amp;nbsp; &amp;nbsp; &amp;nbsp; &amp;nbsp; &amp;nbsp; &amp;nbsp; &amp;nbsp; &amp;nbsp; &amp;nbsp; &amp;nbsp; &amp;nbsp; &amp;nbsp; &amp;nbsp; &amp;nbsp; &amp;nbsp;&lt;/div&gt;&lt;div&gt;0010001&amp;nbsp;&lt;span style=&quot;background-color: transparent; color: light-dark(rgb(0, 0, 0), rgb(255, 255, 255));&quot;&gt;Des val 68&lt;/span&gt;&lt;/div&gt;" style="rounded=1;whiteSpace=wrap;html=1;" vertex="1" parent="1">
          <mxGeometry x="20" y="503" width="180" height="95" as="geometry" />
        </mxCell>
        <mxCell id="11kE0rX5oYtPxI_MTV5b-22" value="0010100 Des val 20&lt;br&gt;&lt;div&gt;1000001 Des val 65&lt;/div&gt;&lt;div&gt;=&amp;nbsp; &amp;nbsp; &amp;nbsp; &amp;nbsp; &amp;nbsp; &amp;nbsp; &amp;nbsp; &amp;nbsp; &amp;nbsp; &amp;nbsp; &amp;nbsp; &amp;nbsp; &amp;nbsp; &amp;nbsp; &amp;nbsp; &amp;nbsp; &amp;nbsp; &amp;nbsp;&lt;/div&gt;&lt;div&gt;1010101 Des val 85&lt;/div&gt;" style="rounded=1;whiteSpace=wrap;html=1;" vertex="1" parent="1">
          <mxGeometry x="20" y="598" width="180" height="95" as="geometry" />
        </mxCell>
        <mxCell id="11kE0rX5oYtPxI_MTV5b-23" value="&lt;div&gt;&lt;span style=&quot;background-color: transparent; color: light-dark(rgb(0, 0, 0), rgb(255, 255, 255));&quot;&gt;1111000 Des val 15&amp;nbsp;&lt;/span&gt;&lt;/div&gt;&lt;div&gt;0011001 Des val 76&lt;/div&gt;&lt;div&gt;=&amp;nbsp; &amp;nbsp; &amp;nbsp; &amp;nbsp; &amp;nbsp; &amp;nbsp; &amp;nbsp; &amp;nbsp; &amp;nbsp; &amp;nbsp; &amp;nbsp; &amp;nbsp; &amp;nbsp; &amp;nbsp; &amp;nbsp; &amp;nbsp; &amp;nbsp; &amp;nbsp;&lt;/div&gt;&lt;div&gt;1100001 Des val 67&lt;/div&gt;&lt;div&gt;&lt;br&gt;&lt;/div&gt;" style="rounded=1;whiteSpace=wrap;html=1;" vertex="1" parent="1">
          <mxGeometry x="20" y="693" width="180" height="95" as="geometry" />
        </mxCell>
        <mxCell id="11kE0rX5oYtPxI_MTV5b-24" value="&lt;div&gt;1110000 Des val 07&lt;/div&gt;&lt;div&gt;0011001 Des val 76&lt;/div&gt;&lt;div&gt;=&amp;nbsp; &amp;nbsp; &amp;nbsp; &amp;nbsp; &amp;nbsp; &amp;nbsp; &amp;nbsp; &amp;nbsp; &amp;nbsp; &amp;nbsp; &amp;nbsp; &amp;nbsp; &amp;nbsp; &amp;nbsp; &amp;nbsp; &amp;nbsp; &amp;nbsp; &amp;nbsp;&lt;/div&gt;&lt;div&gt;1101001 Des val 67&lt;/div&gt;&lt;div&gt;&lt;br&gt;&lt;/div&gt;" style="rounded=1;whiteSpace=wrap;html=1;" vertex="1" parent="1">
          <mxGeometry x="20" y="788" width="180" height="95" as="geometry" />
        </mxCell>
        <mxCell id="11kE0rX5oYtPxI_MTV5b-25" value="" style="shape=singleArrow;whiteSpace=wrap;html=1;" vertex="1" parent="1">
          <mxGeometry x="210" y="417.5" width="100" height="60" as="geometry" />
        </mxCell>
        <mxCell id="11kE0rX5oYtPxI_MTV5b-26" value="I have done this and the outcomes match up with the original message I chose" style="rounded=0;whiteSpace=wrap;html=1;" vertex="1" parent="1">
          <mxGeometry x="310" y="406.25" width="190" height="82.5" as="geometry" />
        </mxCell>
        <mxCell id="11kE0rX5oYtPxI_MTV5b-27" value="Sorry for the formatting of the flow chart this exercise was fun it did take me some time but this was mainly based on the instructions I found them a bit confusing but once I understood the steps it was pretty easy I also think I was overthinking it with my background. As for if the question about the key and the message not having the same characters you would break into binary as normal and you would fill the extra bits with 0&#39;s so they line up for XOR. For example if one only uses 64 bits and the other uses 128 you then would fill in give the 64 bit a 0 at the end to match up with the 128bit binary" style="rounded=0;whiteSpace=wrap;html=1;" vertex="1" parent="1">
          <mxGeometry x="230" y="850" width="450" height="160" as="geometry" />
        </mxCell>
      </root>
    </mxGraphModel>
  </diagram>
</mxfile>
